<svg width="22" height="22" viewBox="0 0 22 22" fill="none" xmlns="http://www.w3.org/2000/svg">
<path d="M8.25 5.4987V9.6248C8.25 10.1298 8.25 10.3823 8.18705 10.6163C8.13127 10.8236 8.03951 11.0196 7.91594 11.1951C7.77649 11.3933 7.58251 11.5549 7.19454 11.8782L3.80546 14.7025C3.41749 15.0258 3.22351 15.1874 3.08406 15.3856C2.96049 15.5612 2.86873 15.7571 2.81295 15.9644C2.75 16.1984 2.75 16.4509 2.75 16.9559V17.232C2.75 18.2588 2.75 18.7722 2.94982 19.1643C3.12559 19.5093 3.40605 19.7898 3.75102 19.9655C4.14319 20.1654 4.65657 20.1654 5.68333 20.1654H16.3167C17.3434 20.1654 17.8568 20.1654 18.249 19.9655C18.5939 19.7898 18.8744 19.5093 19.0502 19.1643C19.25 18.7722 19.25 18.2588 19.25 17.232V16.9559C19.25 16.4509 19.25 16.1984 19.187 15.9644C19.1313 15.7571 19.0395 15.5612 18.9159 15.3856C18.7765 15.1874 18.5825 15.0258 18.1945 14.7025L14.8055 11.8782C14.4175 11.5549 14.2235 11.3933 14.0841 11.1951C13.9605 11.0196 13.8687 10.8236 13.813 10.6163C13.75 10.3823 13.75 10.1298 13.75 9.6248V5.4987M7.60833 5.4987H14.3917C14.6484 5.4987 14.7767 5.4987 14.8747 5.44874C14.961 5.4048 15.0311 5.33468 15.075 5.24844C15.125 5.1504 15.125 5.02206 15.125 4.76536V2.56536C15.125 2.30867 15.125 2.18033 15.075 2.08229C15.0311 1.99604 14.961 1.92593 14.8747 1.88199C14.7767 1.83203 14.6484 1.83203 14.3917 1.83203H7.60833C7.35164 1.83203 7.2233 1.83203 7.12525 1.88199C7.03901 1.92593 6.9689 1.99604 6.92496 2.08229C6.875 2.18033 6.875 2.30867 6.875 2.56536V4.76536C6.875 5.02206 6.875 5.1504 6.92496 5.24844C6.9689 5.33468 7.03901 5.4048 7.12525 5.44874C7.2233 5.4987 7.35164 5.4987 7.60833 5.4987ZM5.04167 15.582H16.9583C17.3843 15.582 17.5972 15.582 17.7743 15.6173C18.5016 15.7619 19.0701 16.3304 19.2148 17.0577C19.25 17.2348 19.25 17.4478 19.25 17.8737C19.25 18.2996 19.25 18.5126 19.2148 18.6897C19.0701 19.417 18.5016 19.9855 17.7743 20.1301C17.5972 20.1654 17.3843 20.1654 16.9583 20.1654H5.04167C4.61573 20.1654 4.40277 20.1654 4.22567 20.1301C3.4984 19.9855 2.92989 19.417 2.78523 18.6897C2.75 18.5126 2.75 18.2996 2.75 17.8737C2.75 17.4478 2.75 17.2348 2.78523 17.0577C2.92989 16.3304 3.4984 15.7619 4.22567 15.6173C4.40277 15.582 4.61573 15.582 5.04167 15.582Z" stroke="white" stroke-width="1.5" stroke-linecap="round" stroke-linejoin="round"/>
</svg>
